<svg width="100" height="100" xmlns="http://www.w3.org/2000/svg">
 <g>
  <title>Layer 1</title>
  <g id="Your_Icon">
   <path d="m99.740997,24.492001c-0.351997,-0.811001 -0.827995,-1.445 -1.608994,-1.974001c-0.133003,-0.09 -0.270004,-0.17 -0.409004,-0.244999c0.124001,-0.088001 0.216003,-0.211 0.267998,-0.344c0.150002,-0.136002 -0.042999,-0.372002 -0.114998,-0.562c1.021004,-0.051001 1.007004,-1.355001 -0.055,-1.355001c0,0 -0.418999,0.329 -0.428001,0.661001c-0.127998,-0.099001 -0.124001,-0.176001 -0.300995,-0.224001c-0.420006,-0.112 -0.788002,-0.028 -1.155006,0.176004c-0.459,0.254995 -0.418999,0.799 -0.091995,1.084c-0.941002,-0.102999 -1.897003,0.041 -2.785004,0.413c-0.574997,0.24 -1.000999,0.623001 -1.493996,0.967001c-0.048004,0.032999 -0.147003,0.035 -0.194,0.029999c-0.041,-0.002995 -0.070999,-0.004 -0.104004,-0.005999c-0.550995,-0.939001 -0.229996,-1.965 -0.619995,-2.937c-0.028,-0.073 -0.061005,-0.144001 -0.096001,-0.213001c0.207001,-0.123999 0.346001,-0.332994 0.346001,-0.567999c0,-0.217999 -0.122002,-0.414 -0.306,-0.538c-0.142006,-0.165001 -0.359001,-0.273994 -0.606003,-0.273994c-0.217003,0 -0.416,0.087 -0.557999,0.223c-0.674004,-0.385 -1.511002,-0.524 -2.331001,-0.285c-0.038002,0.011 -0.078003,0.026999 -0.115997,0.040997c0.011993,-0.046 0.023994,-0.089996 0.030998,-0.139996c0.099998,-0.661001 -0.062004,-1.244001 -0.360001,-1.793001c0.018997,-0.067999 0.037003,-0.136999 0.054001,-0.204c0.057999,0.022001 0.113998,0.044004 0.170998,0.061005c0.970001,0.299 2.113998,0.101 2.726997,-0.672001c0.085007,-0.108001 0.159004,-0.224001 0.220001,-0.344998c0.135002,0.052999 0.287003,0.066998 0.435005,0.047997c-0.038002,0.21 0.028999,0.434999 0.209,0.594997c0.237,0.210001 0.528999,0.357 0.875999,0.272001c0.390999,-0.096001 0.573997,-0.415998 0.574997,-0.754004c0.000999,-0.373 -0.348,-0.682 -0.764999,-0.682c-0.018997,0 -0.036003,0.003 -0.054001,0.004004c0.002998,-0.002998 0.007004,-0.006001 0.012001,-0.009001c0.302002,-0.257003 0.290001,-0.705998 0,-0.964003c-0.298996,-0.268 -0.780998,-0.257 -1.082001,0c-0.001999,0.000999 -0.003998,0.004004 -0.007996,0.005c-0.009003,0.006001 -0.017006,0.012 -0.027,0.018c-0.108002,-0.460999 -0.367004,-0.886998 -0.783005,-1.188c-0.817001,-0.59 -2.084999,-0.786 -3.070999,-0.439c-0.157997,0.056003 -0.275002,0.143003 -0.358002,0.246c-1.174995,-1.112 -3.059998,-1.689 -4.726997,-1.755c-0.055,-0.003 -0.112999,0 -0.171997,-0.000998c-0.457001,-0.605 -1.093002,-1.177999 -1.782005,-1.634998c-0.248001,-0.405999 -0.510994,-0.775999 -0.743996,-1.085999c-0.332001,-0.441 -0.817001,-0.849998 -1.372002,-1.191c0.095001,-0.399 -0.046997,-0.777 -0.325996,-1.092c-0.005005,-0.129 -0.012001,-0.258 -0.016006,-0.386c-0.057999,-1.738 -1.449997,-2.623001 -2.901001,-2.671c-0.329994,-0.321 -0.926994,-0.299 -1.237999,0.032c-0.056999,0.062 -0.106995,0.125 -0.158997,0.189c-0.935997,0.343 -1.697998,1.082 -1.870003,2.212c-0.326996,-0.051 -0.68,-0.064 -1.032997,-0.037c-0.288002,-0.007 -0.609001,0.018 -0.967003,0.078c-0.014999,0.002 -0.030998,0.008 -0.047997,0.011c-1.081001,-0.3 -2.288002,-0.269 -3.521004,-0.265c-0.176994,-1.129 -0.756996,-2.199 -1.926006,-2.787c-1.943001,-0.976 -3.980999,-0.623 -5.591,0.677c-0.447002,0.358 -0.870998,0.734 -1.285007,1.114c-0.667992,-0.637 -1.535,-1.096 -2.561993,-1.106c-2.369999,-0.024 -4.055,1.859 -3.749004,3.705c-0.841999,-0.842 -2.039997,-1.416 -3.258999,-1.443c0.215,-0.212 0.249004,-0.564 0.091003,-0.805c-0.145,-0.248 -0.449001,-0.484 -0.785007,-0.452c-0.16,0.015 -0.311993,0.034 -0.445,0.122c-0.007,0.003 -0.012997,0.006 -0.018002,0.008c-0.174999,0.035 -0.326,0.121 -0.438,0.238c-0.264999,0.148 -0.375999,0.481 -0.296997,0.739c0.062,0.201 0.232998,0.366 0.445,0.448c-0.669003,0.37 -1.206001,1.01 -2.043003,0.917c-0.162003,-0.018 -0.322002,-0.045 -0.480003,-0.077c0.052002,-0.09 0.083,-0.191 0.083,-0.299c0,-0.373 -0.348999,-0.682 -0.765999,-0.682c-0.338001,0 -0.664001,0.03 -0.924999,0.244c-0.091,0.073 -0.158001,0.171 -0.202,0.279c-0.185001,-0.043 -0.368,-0.08 -0.560001,-0.108c0.014999,-0.01 0.027,-0.02 0.042,-0.029c0.300999,-0.247 0.292999,-0.717 0,-0.965c-0.456001,-0.385 -1.138996,-0.51 -1.709999,-0.256c-0.295998,0.133 -0.541996,0.447 -0.519997,0.751c0.014,0.213 0.094002,0.409 0.238998,0.57c-1.679996,0.336 -3.23,1.339 -3.98,2.718c-0.104,-0.087002 -0.232002,-0.152 -0.378998,-0.188002c-0.009007,-0.004002 -0.016006,-0.007 -0.025005,-0.011002c-0.075001,-0.032001 -0.149998,-0.061998 -0.229,-0.089004c-0.218998,-0.127 -0.472,-0.186 -0.743,-0.087996c-0.347,0.124002 -0.543999,0.337996 -0.705997,0.627001c-0.187,0.332998 -0.103996,0.735998 0.274002,0.934c0.153,0.080001 0.343994,0.104 0.520996,0.077001c0.009998,0.335 0.255001,0.664001 0.738003,0.664001c0.014,0 0.025002,-0.002001 0.037003,-0.002001c-0.034,0.438002 -0.050003,0.875998 -0.118,1.308002c-0.117001,0.141998 -0.221001,0.290998 -0.291,0.467c-0.071007,0.176999 -0.087002,0.358 -0.067001,0.535c-0.044998,0.018003 -0.514,0.226999 -0.724995,0.288c-0.511005,0.148 -1.115002,0.379999 -1.652,0.389998c-0.363998,-0.622004 -0.594999,-1.414001 -0.921,-2.101999c-0.052999,-0.122001 -0.112999,-0.355 -0.174999,-0.355l0.125998,0c0.667006,0 1.013,-0.749001 0.540998,-1.169001c-0.193001,-0.172 -0.388,-0.321 -0.646997,-0.406c-0.193996,-0.063999 -0.419003,-0.058001 -0.622999,-0.058001c-0.143002,0 -0.276999,0.037001 -0.391998,0.099998c-0.563999,-0.684 -1.261003,-1.266 -2.091999,-1.585c0.038,-0.023 0.073996,-0.05 0.109999,-0.081c0.044003,-0.04 0.081001,-0.086 0.112001,-0.135c0.064999,-0.031 0.127995,-0.07 0.179995,-0.125c0.120998,-0.13 0.237999,-0.267 0.268999,-0.442c0.007999,-0.061 0.014999,-0.108 0.019999,-0.156c0.125,-0.251 0.101004,-0.537 -0.143997,-0.755c-0.230999,-0.205 -0.645002,-0.276001 -0.927999,-0.107c-0.125999,0.077 -0.247002,0.159 -0.365999,0.243c-0.007998,0.003 -0.014997,0.008 -0.021,0.013c-0.019999,0.012 -0.040003,0.021 -0.061003,0.032c-0.035997,0.012 -0.075998,0.026 -0.098999,0.033c-0.299999,0.09 -0.594999,0.347 -0.561001,0.658c0.021,0.199 0.076,0.425 0.254999,0.566c-0.207998,-0.008 -0.421001,-0.002 -0.639997,0.023c-1.299002,0.146 -2.611002,0.72 -3.195997,1.815001c-0.469004,0.879997 -0.396004,1.808002 -0.295,2.749002c0.054996,0.511002 0.33,1.429 -0.526003,1.349s-1.560997,-1.101999 -2.254993,-1.497001c-4.340004,-2.471004 -9.041,3.724 -6.090004,6.834998c-0.084002,0.156 -0.167996,0.312 -0.252996,0.469c-0.028002,-0.000998 -0.427,-0.005999 -0.456,-0.004997c-0.136,0.004997 -0.773,0.025002 -0.773,0.046l0,-0.014c0,-0.131001 0.344,-0.254002 0.302999,-0.368c0.125,-0.252001 0.259,-0.561998 0.032999,-0.762999c-0.271001,-0.242001 -0.606001,-0.256001 -0.903996,-0.062c-0.256001,0.004002 -0.454,0.111 -0.596004,0.329c-0.171,0.261002 -0.094995,0.629002 0.151999,0.837002c0.021,0.047997 0.059,0.094 0.096,0.141001c0.1,0.128 0.215,0.244999 0.338,0.355999c-0.003,0.004002 0.002,0.005001 -0.002002,0.007c-0.011998,0.021 -0.018003,0.040998 -0.028998,0.061001c-0.087998,-0.032999 -0.183002,-0.052 -0.283998,-0.052c-0.063996,0 -0.127002,0.004 -0.186002,0.01c-0.035,-0.005001 -0.070998,-0.01 -0.105,-0.01c-0.168,0 -0.325003,0.052 -0.453,0.136999c0.056,-0.136999 0.059999,-0.287998 0.014997,-0.427999c0.021001,-0.061996 0.037004,0.014002 0.037004,-0.053999c-0.001,-0.370001 -0.35,-0.537001 -0.768003,-0.537001l-0.292002,0c-0.415998,0 -0.355,0.024 -0.355,0.396l0,0.101999c0,0.209002 -0.119,0.385 0.046999,0.535002c0.087998,0.077 0.073998,0.155998 0.162999,0.234999c0.266003,0.238003 0.641999,0.257999 0.938003,0.065002c-0.030003,0.073 -0.075002,0.15 -0.073998,0.230999c0,0.052999 -0.007001,0.103001 -0.000998,0.151001c0.002,0.011 -0.054001,0.021997 -0.054001,0.032c0.007998,0.047001 -0.018999,0.093 -0.018999,0.137001l0,0.004004c0,0.047998 0.089997,0.095999 0.117,0.143997c0.057,0.105 0.184,0.191999 0.276,0.275002c0.294002,0.262001 0.802,0.262001 1.095,0c0.101997,-0.089998 0.171,-0.202999 0.203,-0.318995c0.021996,-0.025003 0.046,-0.052 0.066,-0.081001c0.112,0.046 0.235997,0.075001 0.363997,0.081001c0.044003,0.000998 0.084002,-0.002003 0.125,-0.008001c-0.410997,0.569 -0.891998,1.087 -1.507,1.502001c-0.618,0.417999 -1.256001,0.872999 -1.789001,1.398001c-0.01,-0.018999 -0.017,-0.038 -0.029,-0.054996c-0.158,-0.217999 -0.421,-0.367998 -0.721999,-0.356997c-0.169,0.006001 -0.339001,0.039999 -0.503001,0.075001c-0.397,0.087 -0.633,0.474001 -0.54,0.818998c-0.039,0.200003 -0.021,0.403997 0.081,0.585999c-0.022,0 -0.044,-0.004002 -0.066,0c-0.179,0.02 -0.356,0.035 -0.505,0.134001c-0.016,0.007999 -0.027,0.02 -0.044,0.030003c-0.308,0.087997 -0.538,0.344999 -0.538,0.648001c0,0.287003 0.21,0.537003 0.499001,0.635c0.049,0.108 0.098001,0.213999 0.14,0.324999c0.036,0.089003 0.085001,0.169003 0.149,0.239c-0.051,0.146 -0.031,0.302998 0.035,0.445c-0.112,0.054001 -0.504001,0.113998 -0.590001,0.184999c-0.231,0.188002 -0.48,0.429996 -0.565,0.688002c-0.054,-0.154001 -0.139,-0.277 -0.331,-0.277l-0.147,0c-0.416,0 -0.765,0.129002 -0.765,0.500999c0.001,0.370996 0.349,0.499001 0.765,0.499001l0.146,0c0.302,0 0.561,0.179996 0.685,-0.047998c0.001,0.049999 0,0.269999 0.005,0.321001c0.028,0.266998 0.207,0.619999 0.482,0.726997c0.02,0.214998 0.087001,0.468 0.208001,0.667c0.051,0.188002 0.133,0.385 0.249,0.545c-0.369001,0.106998 -0.853001,0.238998 -1.217,0.318998c-1.738001,0.386002 -3.905,0.915997 -4.491001,2.649002c-0.523,1.544998 0.244,2.922001 1.158,4.154999c0.567,0.768002 0.501,1.415001 0.501,2.327l0,0.002003c0,0.124001 -0.377,0.282001 -0.662,0.490002c-1.334,0.976997 -1.414,2.993 -0.485,4.257c0.285,0.389996 0.712,0.756001 1.133,1.057999c-0.103,0.021 -0.177,0.037998 -0.277,0.060001c-0.404,0.087002 -0.623,0.487 -0.518,0.835999c-0.046,0.001999 -0.085,0.007 -0.131,0.014999c-0.247,0.044998 -0.416,0.204998 -0.525,0.395c-0.227,0.115997 -0.378,0.324997 -0.378,0.578999c0,0.360001 0.349,0.697998 0.766,0.681999c0.11,-0.003998 0.22,-0.019001 0.323,-0.047001c0.28,0.082001 0.579,0.045002 0.801,-0.153c0.173,-0.153 0.271,-0.407997 0.209,-0.625c0.014,-0.079998 0.012,-0.16 -0.002,-0.239998c0.017,0.024998 0.031,0.052998 0.05,0.078999c0.275,0.382999 0.825,0.438999 1.201,0.138c-0.126,0.101002 0.014,-0.007 0.04,-0.022999c0.067,-0.046001 0.136,-0.093002 0.204,-0.139999c0.066,-0.054001 0.127,0.257999 0.181,0.192997c0.276,-0.129997 0.557,-0.217999 0.629,-0.217999l0.037,0c0.77,0 1.371,-0.716003 1.808,-1.139c0.161,0.056 0.323,-0.077999 0.489,-0.028004c0.995,0.301003 2.009,0.422997 2.885001,0.958c0.271001,0.163998 0.530999,0.285 0.759998,0.494999c-0.037002,0.033997 -0.070002,0.040997 -0.092999,0.056995c-0.009001,0.006004 -0.014,-0.001999 -0.021,0.000999c-0.014001,0.009998 -0.033,0.014999 -0.054999,0.028999c-0.112,0.068996 -0.226998,0.133999 -0.341002,0.200996c-0.240999,0.137997 -0.485003,0.271999 -0.728999,0.409c-1.197001,0.670998 -2.338,1.392998 -2.905001,2.577995c-0.204,-0.179996 -0.457,-0.309002 -0.748,-0.355999c-0.41,-0.066998 -0.823,0.096996 -0.941,0.475998c-0.047,0.153999 -0.022,0.327003 0.055,0.479c-0.045,0.039001 -0.088,0.084003 -0.122,0.139c-0.198,0.299004 -0.103,0.771999 0.273,0.931007c0.336,0.144997 0.742,0.256001 1.11,0.129002c0.068,-0.023003 0.136,-0.055 0.201,-0.088001c0.244,1.077999 1.053,2.112003 1.921,2.773998c0.044003,0.035004 0.091002,0.067001 0.137,0.099003c-0.125998,0.249004 -0.21,0.511997 -0.257,0.780998c-0.1,-0.028004 -0.205,-0.046001 -0.313001,-0.040005c-0.377,0.016003 -0.74,0.154003 -1.022,0.374001c-0.221,0.170002 -0.4,0.480003 -0.368,0.749004c0.021,0.168999 0.043,0.313 0.149,0.465c0.107,0.151997 0.203,0.226002 0.361,0.330002c0.23,0.150997 0.592,0.195 0.863,0.119999c0.092,-0.025002 0.18,-0.062 0.264,-0.105c0.092,-0.017002 0.180999,-0.042999 0.263999,-0.083c0.115998,0.295998 0.266001,0.575001 0.450998,0.828999c0.082999,0.115002 0.177,0.223 0.273002,0.326c-0.122003,0.201 -0.198999,0.438 -0.209002,0.716c-0.009003,0.208 0.007998,0.408001 0.039001,0.601002c-0.223001,0.695999 -0.256001,1.447998 -0.115002,2.094997c0.007,0.031002 0.019,0.061001 0.026999,0.095001c-0.242002,0.027 -0.424999,0.144001 -0.577003,0.323002c-0.044002,0.039997 -0.085999,0.084 -0.121,0.136997c-0.199,0.301998 -0.1,0.771 0.274,0.934002c0.068002,0.028999 0.136003,0.053001 0.203,0.070999c0.134002,0.091003 0.301003,0.14801 0.473001,0.14801c0.240001,0 0.487999,-0.12001 0.636,-0.297012c0.983002,0.782005 2.532001,1.028999 3.773002,0.619003c0.926003,-0.308006 1.696001,-0.867004 2.264997,-1.559002c-0.014997,0.092999 -0.009998,0.191998 0.028999,0.297001c0.313001,0.862007 1.030003,1.563011 2.087999,1.650009c0.285999,0.022995 0.556,-0.006004 0.809998,-0.070007c0.021997,0.022003 0.039999,0.046005 0.063004,0.068008c0.007998,0.008987 0.018002,0.016991 0.030001,0.022995c-0.290998,0.108994 -0.516998,0.376999 -0.497002,0.665001c0.023998,0.362999 0.259996,0.674004 0.620996,0.846001c0.474001,0.227997 1.014997,-0.012001 1.129004,-0.449997c0.011002,-0.055 0.030005,-0.108002 0.052998,-0.162003c0.002003,-0.006004 0.007,-0.014008 0.011003,-0.020996c0.110998,-0.202003 0.132998,-0.422012 0.028996,-0.626007c0.691,0.372002 1.426004,0.670006 2.214003,0.814995c1.799004,0.334999 3.827003,-0.353996 5.403002,0.582001c1.438997,0.854012 3.389002,0.740997 5.051004,0.945007c1.913998,0.234001 3.825996,0.415001 5.761997,0.427002c0.048,0 0.091003,-0.006004 0.134003,-0.012001c0.129997,0.056 0.264,0.109001 0.396,0.162003c2.337002,0.950996 3.931,1.728996 6.031998,3.086006c0.332001,0.214989 1.02,0.910988 1.385998,1.156998c0.006004,0.214005 0.012001,0.429001 0.018005,0.642998c-0.007,2.280006 0.212002,6.996002 0.199001,9.762001c-0.007999,1.336006 -0.081001,2.632004 -0.225002,3.929001c-0.025997,0.133003 -0.053001,0.264999 -0.080997,0.395004c-0.155003,0.698997 -0.357002,1.419998 -0.627003,2.123001c-0.065998,-0.005005 -0.138,0.003998 -0.211998,0.030998c-2.089001,0.754997 -4.292,0.953995 -6.416,1.563995c-0.854,0.246002 -1.91,0.481003 -2.611,1.067001c-0.918999,0.769005 -1.604,1.728996 -2.723,2.243004c-0.019001,0.008995 -0.028,0.021996 -0.045002,0.032997c-0.625,0.056 -1.249001,0.116997 -1.874001,0.191002c-0.139999,0.016998 -0.230001,0.080002 -0.291,0.161995c-0.448,0.030006 -0.896999,0.059006 -1.348999,0.074005c-0.363001,0.012001 -0.513,0.336998 -0.463001,0.612999c-3.052998,0.124001 -6.104,0.741997 -9.132998,1.145996c-0.223001,0.034004 -0.343,-0.130997 -0.377001,0.869003l54.221996,0c-0.036003,-1 -0.175003,-0.872009 -0.464005,-0.931999c-1.591995,-0.331001 -3.169006,-1.18 -4.810005,-1.289001c-0.599991,-0.042 -1.192001,-0.207001 -1.783005,-0.25c-0.077995,-0.084999 -0.184998,-0.217003 -0.320999,-0.260002c-1.195,-0.381996 -2.438995,-0.593994 -3.647984,-0.916c-0.296997,-0.078995 -0.538998,-0.155998 -0.784,-0.215996c-1.121998,-0.959999 -2.154999,-2.051003 -3.368999,-2.896004c-1.18,-0.821999 -2.585999,-1.154999 -3.987,-1.355995c-0.030998,-0.005005 -0.056,0.001999 -0.084,0.002998c-0.238998,-0.924004 -0.292999,-1.829002 -0.363998,-2.784004c-0.174999,-2.339996 -0.581001,-4.658997 -0.818001,-6.994003c-0.055,-2.021996 -0.151001,-4.042992 -0.118,-6.064995c0.021999,-1.572998 0.16,-3.114998 0.362999,-4.678001c0.089001,-0.664993 0.148003,-1.341995 0.235001,-2.014c0.227001,-0.103996 0.453999,-0.206993 0.687,-0.301994c0.771999,-0.315002 1.771,-0.397003 2.610001,-0.462006c0.066998,-0.004997 0.285999,-0.004997 0.285999,-0.009995c0,0 0,0 0,0.001999c0,0.330002 -0.18,0.737 0.194,0.932999c0.27,0.140999 0.831001,0.112999 1.069,-0.063004c0.272999,-0.064995 0.704998,-0.260994 0.729,-0.503998c-0.022999,-0.014 -0.219002,-0.027 -0.213001,-0.039001c0.008999,-0.015999 -0.099998,-0.030998 -0.091999,-0.046997c0.012001,-0.025002 0.000999,-0.049004 -0.006001,-0.071999c0.09,0.072998 0.198002,0.117996 0.313999,0.146996c0,-0.002998 0.004002,-0.005997 0.004002,-0.008995l0,0.009995c0.086998,0.021004 0.176998,0.038002 0.27,0.036003c0.024998,0.028999 0.039997,0.058998 0.069,0.085999c0.028996,0.136002 0.037991,0.272003 0.000996,0.424004c-0.131004,0.556 0.535992,1.151001 1.146999,0.788002c0.398991,-0.238007 0.780991,-0.478004 1.110001,-0.757004c0.190002,-0.053001 0.375999,-0.119003 0.549004,-0.208c-0.013,0.042999 -0.018005,0.090004 -0.018005,0.139c0.000999,0.224998 0.062,0.433998 0.245007,0.598999c0.181,0.160004 0.418999,0.211998 0.666,0.213005c0.417,0 0.765999,-0.311005 0.765999,-0.683006c0,-0.217995 -0.122009,-0.411995 -0.306999,-0.535995c-0.140999,-0.166 -0.359001,-0.276001 -0.605003,-0.276001c-0.017998,0 -0.035999,0.005997 -0.053997,0.007996c0.127998,-0.144997 0.266994,-0.326996 0.395,-0.520988c0.214996,-0.024002 0.429001,-0.050003 0.642998,-0.075005c0.035011,0.091995 0.073006,0.183006 0.131004,0.268997c0.411995,0.643997 1.275986,1.159996 2.119003,1.171997c0.500992,0.008003 0.946999,-0.181 1.231995,-0.547997c0.004997,-0.009003 0.006004,-0.016998 0.012001,-0.022003c0.746994,0.080002 1.528992,-0.053001 2.237999,-0.376999c0.494003,-0.226997 0.915993,-0.564003 1.237999,-0.959c0.128998,0.024002 0.25901,0.045998 0.390999,0.062004c0.42601,1.473 1.901001,2.704994 3.546997,2.936996c-0.079987,0.122002 -0.119995,0.264999 -0.119995,0.427002c-0.000992,0.372002 0.348999,0.682999 0.766006,0.682999c0.177994,0 0.339989,-0.058998 0.469994,-0.151001c0.332008,-0.073997 0.586998,-0.345001 0.586998,-0.659996c0,-0.146004 -0.056992,-0.283005 -0.145988,-0.394005c0.036995,-0.011002 0.074997,-0.023003 0.110992,-0.033997c0.263,0.280998 0.673004,0.425995 1.091003,0.448997c0.163994,0.023003 0.330994,0.014 0.487999,-0.028c0.134003,-0.022003 0.264992,-0.058998 0.382004,-0.103996c0.383995,-0.153008 0.681,-0.563004 0.642998,-0.943001c-0.045998,-0.449005 -0.298996,-0.806999 -0.629997,-1.129005c0.144997,-0.352997 0.234001,-0.727997 0.285995,-1.102997c0.047005,-0.029999 0.091003,-0.057999 0.137001,-0.088997c0.420998,0.366997 1.163994,0.548996 1.733002,0.340996c0.520996,0.011002 1.057999,-0.084999 1.455002,-0.343002c0.598999,-0.388 0.923996,-0.850998 0.978996,-1.519997c0.029999,-0.374004 -0.141998,-0.896008 -0.382996,-1.200008c-0.311012,-0.393002 -0.758003,-0.737 -1.283012,-0.890999c-0.042992,-0.02 -0.090996,-0.034 -0.139,-0.051003c-0.072998,-0.058998 -0.151993,-0.112 -0.236,-0.16c-0.014992,-0.233997 -0.059998,-0.459 -0.113991,-0.678997c0.059998,0.015999 0.115997,0.021 0.177994,0.040997c0.426003,0.134003 0.839005,0.280003 1.278999,0.401001c0.764,0.204002 1.677994,0.289001 2.503998,0.155003c0.896011,-0.141003 1.77301,-0.531998 2.235008,-1.028c0.295998,0.211998 0.739998,0.200996 1.012001,-0.040997c0.025002,-0.022003 0.045998,-0.047005 0.064995,-0.071007c0.183998,-0.128998 0.306007,-0.328999 0.306007,-0.540997c0,-0.247997 -0.150009,-0.454998 -0.371002,-0.572002c0.322998,-0.304001 0.540001,-0.695 0.608002,-1.147999c0.047997,-0.086002 0.091995,-0.176006 0.119995,-0.273006c0.18,-0.594994 -0.107002,-1.349995 -0.752998,-1.637997c-0.143997,-0.062 -0.278,-0.115002 -0.415001,-0.163998c0.375999,-0.374004 0.522003,-0.791 0.184006,-1.248001c-0.282005,-0.381004 -0.784004,-0.657001 -1.388,-0.861c-0.076004,-0.246998 -0.147003,-0.492004 -0.201004,-0.729c-0.072998,-0.312 -0.139,-0.618 -0.051003,-0.813c0.019005,-0.041 0.093002,-0.176003 0.133003,-0.250999c0.074997,0.012997 0.157997,0.028999 0.208,0.055c0.373001,0.181 0.727997,0.384995 1.080002,0.598c0.706001,0.424995 1.414001,0.815002 2.147995,1.084003c-0.163994,0.110001 -0.300995,0.259003 -0.396996,0.422997c-0.194,0.330006 -0.098007,0.738998 0.275002,0.934002c0.347,0.181004 0.853996,0.084003 1.046997,-0.243996c0.003998,-0.009003 0.011002,-0.016006 0.015999,-0.023006c0.225998,-0.117996 0.381004,-0.329994 0.381004,-0.580994c0,-0.063007 -0.014999,-0.125 -0.035004,-0.187c0.691002,0.085999 1.413002,0.031998 2.184998,-0.235001c1.240005,-0.43 2.453003,-0.983002 3.328003,-1.902c0.716003,-0.754002 1.265999,-1.993 0.820999,-2.977001c-0.229996,-0.506001 -0.492996,-0.941998 -0.92601,-1.336998c-0.084,-0.077 -0.241997,-0.216 -0.375992,-0.336002c0.012993,-0.100998 0.021004,-0.202999 0.030006,-0.304996c0.005997,-0.004002 0.010994,-0.007999 0.01899,-0.011993c0.189003,-0.127007 0.393997,-0.245007 0.567001,-0.389c1.896996,-1.572002 0.261002,-3.725002 -0.104012,-5.619003c0.27301,-0.515999 0.237007,-1.143997 -0.304001,-1.577c-0.001999,-0.419998 -0.014992,-0.841999 -0.044991,-1.261997c-0.006004,-0.085003 -0.014999,-0.169006 -0.02301,-0.252003c0.271004,-0.200001 0.53701,-0.405006 0.78701,-0.620003c0.945992,-0.815994 1.124001,-1.933002 0.366997,-2.919994c-0.462013,-0.604 -1.033005,-1.153004 -1.434006,-1.793003c-0.111,-0.146 -0.194,-0.303997 -0.25,-0.473999c-0.000999,-0.035999 -0.004997,-0.067001 -0.006996,-0.095001c0.193001,-0.174999 0.387993,-0.344 0.572006,-0.527c0.598984,-0.591 0.840996,-1.348999 0.780991,-2.138c-0.031998,-0.415997 -0.225998,-0.773994 -0.24099,-1.106997c0.096001,0.016001 0.191994,0.025002 0.288994,0.024c0.959999,-0.005001 1.542,-0.679998 1.625992,-1.472c0.098999,-0.903999 0.445999,-1.679998 0.049995,-2.589998l0.000008,-0.000013l0.000015,-0.00001l0.000008,-0.000008l0,-0.000006l0,-0.000008zm-71.615997,41.535c-1.504,-0.860001 -3.047001,-0.32 -4.688999,-0.449997c-0.642,-0.051003 -1.241001,-0.198006 -1.807001,-0.414001c0.007,-0.014999 0.017,-0.026001 0.021,-0.041c0.024,-0.015999 0.052,-0.032005 0.073999,-0.053001c0.138,-0.125 0.213001,-0.293999 0.220001,-0.465004c0.060999,-0.147995 0.1,-0.303993 0.126999,-0.459c0.051001,-0.019997 0.104,-0.037994 0.155001,-0.059998c0.518,-0.210999 1.104,-0.549 1.698999,-0.792c-0.106998,-0.118999 -0.210999,-0.238998 -0.306999,-0.365997c-0.375,-0.492001 -0.326,-1.194 0.157999,-1.624001c0.102001,0.056 0.197001,0.115997 0.301001,0.167c0.782,0.392998 1.596001,0.627998 2.421,0.781998c0.248001,0.267002 0.58,0.477001 0.954,0.609001c0.088001,0.062 0.184,0.118 0.280001,0.171001c0.365999,0.009998 0.730001,0.049 1.086,0.120998c0.876999,0.172001 1.606998,0.693001 2.341,1.183998c-0.356001,0.343002 -0.572001,0.825005 -0.522001,1.354004c0.044004,0.462997 0.244001,0.832001 0.537004,1.106995c-1.073999,-0.098 -2.128,-0.239998 -3.049,-0.770996l-0.000002,0l-0.000002,0zm15.500999,27.192001c-2.515999,0.581001 -5.028,1.139 -7.567001,1.545998c-0.133999,0.008003 -0.267998,0.021004 -0.401997,0.028c0.945,-0.770996 1.799,-1.635002 3.060997,-2.07c2.072002,-0.715996 4.284,-0.898003 6.385002,-1.528999c-0.390999,0.740997 -0.871002,1.434998 -1.477001,2.025002zm15.429001,-0.848999c0.535999,0.403 1.036999,0.853996 1.533001,1.311996c-1.081001,-0.390999 -2.242001,-0.576996 -3.298,-1.029999c-0.542,-0.233002 -1.028999,-0.549004 -1.518002,-0.861c-0.109001,-0.281998 -0.217999,-0.565002 -0.321999,-0.848999c1.32,0.223999 2.508999,0.602997 3.605,1.428001zm-12.113998,-45.569004c0.086998,-0.168999 0.189999,-0.321999 0.306999,-0.461998c0.119999,0.153999 0.258999,0.295998 0.402,0.410999c0.338997,0.278999 0.757999,0.473999 1.191998,0.561001c0.02,0.072998 0.049999,0.146 0.105,0.218998c0.562,0.756001 1.477001,1.091 2.358002,0.505001c0.089001,-0.058998 0.148998,-0.127998 0.199001,-0.201c-0.604,1.032001 -1.234001,2.053001 -1.808002,3.066002c-0.388,0.687 -0.987999,1.479 -1.318001,2.292c-0.552998,-0.935001 -0.920998,-1.946003 -1.462997,-2.894001c-0.271,-0.473999 -0.544003,-0.943001 -0.802002,-1.417999c0.294003,-0.615002 0.495003,-1.450001 0.828003,-2.079002zm-13.057003,20.284c0.585003,-0.292 0.882,-0.815002 0.971001,-1.417c0.029999,-0.209 0.048,-0.419998 0.063,-0.629997c0.135002,0.007996 0.271999,0.005997 0.416,-0.008003c0.167,-0.016998 0.337002,-0.046997 0.503002,-0.093002c0.457996,0.468002 0.882,0.956001 1.23,1.508003c0.195,0.310997 0.390999,0.621002 0.612,0.913002c-1.271999,-0.037003 -2.533001,-0.137001 -3.795002,-0.273003zm12.410999,2.214005c0.002003,0.217995 0.003002,0.435997 0.005001,0.653c-0.021999,-0.013 -0.042999,-0.027 -0.065998,-0.040001c-1.856003,-1.056 -4.027,-1.546005 -6.045002,-2.308006c-0.355,-0.179993 -0.674,-0.384995 -0.892998,-0.627998c-0.564003,-0.633995 -0.937,-1.377998 -1.441002,-2.048996c-0.209999,-0.278999 -0.452999,-0.543999 -0.707001,-0.802002c0.105,-0.122002 0.217003,-0.250999 0.326,-0.396c0.268002,0.154999 0.565002,0.271 0.892002,0.337002c0.458,0.089996 0.964001,0.037994 1.427998,-0.119003c-0.008999,0.045002 -0.014999,0.088005 -0.014999,0.132004c0,0.100998 0.024002,1.042999 0.062,1.131996c-0.099998,-0.035995 -0.209,0.789001 -0.334999,0.789001l0.493999,0c-0.908001,0 -0.981998,0.566002 -0.242001,0.719002c0.506001,-0.131004 0.68,-0.525002 0.521,-0.924004c0.112,0.047005 0.232002,0.205002 0.359001,0.205002l0.245995,0c0.469006,0 0.859001,-0.924004 0.859001,-1.352997c0,-0.423004 -0.386002,-1.062004 -0.849995,-1.067001c0.493996,-0.486 0.708,-1.281002 0.324997,-1.981003c-0.046997,-0.080997 -0.192001,-0.332001 -0.358997,-0.542c0.013,-0.124001 0.041,-0.274998 0.098,-0.361c0.172001,0.178001 0.362999,0.316002 0.569,0.441002c0.665001,0.396 1.288998,0.410999 1.813999,0.200001c1.155998,0.604 2.27,1.264 2.973,1.790997c0.006001,0.008003 0.012001,0.014 0.02,0.024002c-0.339001,2.045998 -0.327,4.096001 -0.038002,6.147003zm2.324001,-7.860004c-0.981998,-0.105 -2.003998,-0.608997 -3.110001,-1.18c0.285,-0.132 0.512001,-0.360001 0.576,-0.683998c0.004002,-0.023003 0.005001,-0.044003 0.007999,-0.067001c0.037003,-0.114998 0.064999,-0.231995 0.071003,-0.362999c0.011997,-0.205994 -0.09,-0.400002 -0.245003,-0.542999c-0.000999,-0.002003 -0.002998,-0.002995 -0.003998,-0.00499c0.056992,-0.004002 0.112,-0.014999 0.162991,-0.030006c0.332008,-0.113995 0.545002,-0.311001 0.705002,-0.596001c0.215,-0.380001 0.112003,-0.848999 -0.306992,-1.074001c-0.295002,-0.156998 -0.695007,-0.132 -0.966003,0.054008c-0.330997,0.111 -0.586998,0.400002 -0.574997,0.737c0.002998,0.09 0.018997,0.171001 0.038998,0.249004c-0.205997,-0.028999 -0.419998,-0.000999 -0.619999,0.063992c-0.175999,-0.271996 -0.396,-0.521 -0.636002,-0.726994c0.504002,-0.289001 0.875,-0.731998 1.052002,-1.209003c0.303001,0.098003 0.658001,0.040001 0.896,-0.177998c0.332001,-0.303001 0.332001,-0.809013 0,-1.110004c-0.018002,-0.017002 -0.035,-0.035995 -0.053001,-0.054996c-0.038998,-0.101997 -0.098999,-0.197002 -0.193001,-0.280994c-0.158997,-0.147003 -0.379997,-0.23 -0.605,-0.23c-0.164997,0 -0.334003,0.051003 -0.479,0.137001c-0.202,-0.167004 -0.463997,-0.306004 -0.796997,-0.405003c-0.122002,-0.035995 -0.244003,-0.063 -0.362003,-0.087997c-0.280998,-0.346004 -0.731998,-0.570004 -1.234997,-0.600998c-0.645,-0.038002 -1.306,0.115993 -1.877003,0.406998c0.080002,-0.896 -0.461002,-1.855003 -1.27,-2.384998c-0.728996,-0.478001 -1.668999,-0.672001 -2.559998,-0.507999c-0.075001,0.014 -0.166,0.035 -0.262001,0.058998c0.807999,-0.509998 1.290997,-1.374001 0.899002,-2.280998c-0.104,-0.241001 -0.251003,-0.464001 -0.428001,-0.665001c0.261002,0.194 0.533001,0.423 0.715,0.480999c1.284,0.403999 2.768002,0.139 3.660999,-0.825001c0.408997,-0.441998 0.538998,-1.028999 0.707001,-1.583c0.008999,0.008003 0.019001,0.013 0.027,0.02c0.112,0.087002 0.221001,0.184002 0.325993,0.283001c-0.097,0.448002 -0.205994,0.904999 -0.189999,1.345001c0.030991,0.924999 1.010002,1.740997 1.964993,1.945c0.257,0.055 0.513,0.051998 0.760002,0.008999c0.690994,1.527 1.610004,3.811001 2.118996,4.625c0.766003,1.223 1.604,2.448002 2.346004,3.684002c0.398003,0.66 0.650009,1.585999 0.612,2.365997c-0.002998,0.081001 0,0.158001 0.009998,0.23c-0.334988,0.297001 -0.625996,0.627003 -0.882996,0.978001l0,-0.000004l0.000004,-0.000004l0,-0.000004l0.000004,-0.000004l0,-0.000004zm3.616001,-2.778c-0.202999,-0.327999 -0.940002,-1.133999 -1.154999,-1.446999c-0.524002,-0.760002 -0.999001,-1.539001 -1.513,-2.303001c0.125999,-0.146 0.188999,-0.341 0.134998,-0.566998c-0.135998,-0.576 0.606998,-1.488003 0.896,-1.969002c0.365002,-0.612999 0.659,-1.249001 1.007,-1.868999c0.41,-0.732002 0.858002,-1.445 1.297001,-2.163002c0.007,0.011002 0.012001,0.022003 0.019001,0.032001c0.916,1.250999 2.639,1.334999 3.939999,0.462002c0.689999,-0.464001 1.276001,-1.418003 2.008999,-1.887001c0.091,0.112999 0.172001,0.235001 0.245003,0.358997c-0.218002,0.451 -0.341003,0.919003 -0.352001,1.365002c-0.262001,0.217999 0.202,0.043999 -0.271,0.927002c-0.220001,0.410999 -1.576,2.373997 -1.790001,2.787998c-0.167999,0.104 -1.546001,1.935001 -1.674999,2.089001c-1.317001,1.591 -1.755001,2.453999 -2.792,4.182999zm7.035999,5.573002c-0.271999,0.242996 -0.279999,0.632996 -0.049999,0.895996c-0.986,0.023003 -1.968002,0.074005 -2.950001,0.219002c-0.574001,0.084 -1.077999,0.238998 -1.563999,0.423004c0.026001,-0.110001 0.052998,-0.219002 0.084,-0.326004c0.359001,-1.233002 0.960999,-2.135998 2.007,-2.992001c0.553001,-0.453999 1.188999,-0.732998 1.598,-1.309998c0.330002,-0.115002 0.666,-0.144001 1.005001,-0.144001l0.013,0c0.018997,0 0.174999,-0.161999 0.312,-0.061001c-0.025002,0.275002 -0.041,0.428001 -0.079002,0.702c-0.012001,0.084 -0.040001,0.086002 -0.080997,0.138c-0.006001,0.007 -0.013,0.102001 -0.02,0.108002c-0.007,0.009998 -0.018002,0.112999 -0.026001,0.112999c-0.013,0 -0.010002,0 -0.025002,0c-0.084999,0 -0.167999,-0.118 -0.251999,-0.101002c-0.202999,0.033001 -0.366001,0.068001 -0.525002,0.191002c-0.403,0.313 -0.209999,1.037998 0.359001,0.953999c0.191002,-0.028999 0.371002,-0.086998 0.543999,-0.140999c-0.029999,0.333 -0.015999,0.659 0.083,0.963001c0.021,0.066998 0.025002,0.120998 0.051003,0.181995c-0.170002,0.016006 -0.356003,0.074005 -0.484001,0.186005zm3.084,-5.724003c-0.954998,-0.056999 -1.911999,-0.049999 -2.856998,0.051003c-1.419003,0.154999 -2.567001,-0.122002 -3.882,0.371998c0.327999,-0.847 0.690998,-1.684998 1.132,-2.502998c0.652,-1.212002 1.237,-2.457001 1.905998,-3.66c0.403,-0.726002 0.832001,-1.453999 1.428001,-2.062c0.159,0.070007 0.329998,0.132999 0.521,0.181007c0.140999,0.035 0.278999,0.050999 0.417,0.052002c-0.087002,0.428997 -0.029999,0.850998 0.183998,1.273991c-0.174,0.169998 -0.391998,0.331001 -0.695999,0.480003c-0.729,0.359001 -1.493999,0.688 -1.933998,1.192001c-0.906002,1.038998 0.882,1.827 2.181999,2.339001c0.686001,0.271 1.679001,0.553997 1.676998,1.105003c-0.000999,0.399998 -0.094997,0.785995 -0.077999,1.178993l0,-0.000004z" id="svg_78" fill="#FFFFFF"/>
  </g>
 </g>
</svg>